<?xml version="1.0" encoding="UTF-8" standalone="no"?>
<!DOCTYPE svg PUBLIC "-//W3C//DTD SVG 1.1//EN" "http://www.w3.org/Graphics/SVG/1.1/DTD/svg11.dtd">
<svg width="100%" height="100%" viewBox="0 0 238 79" version="1.1"
  xmlns="http://www.w3.org/2000/svg" xmlns:xlink="http://www.w3.org/1999/xlink" xml:space="preserve"
  xmlns:serif="http://www.serif.com/"
  style="fill-rule:evenodd;clip-rule:evenodd;stroke-linejoin:round;stroke-miterlimit:2;"><path d="M0,77.141C0.791,69.493 1.336,63.352 1.637,58.717C2.089,51.861 2.521,42.432 2.936,30.432C3.35,18.433 3.557,10.361 3.557,6.216L3.557,0C14.898,0.075 25.448,0.113 35.206,0.113C45.04,0.113 54.497,0.075 63.578,0C62.975,8.665 62.673,14.336 62.673,17.011L57.757,16.841L49.845,16.728L38.712,16.728C37.431,16.728 33.682,16.766 27.466,16.841L26.958,30.009L35.152,30.178L44.307,30.178C46.944,30.178 50.975,30.122 56.4,30.009C55.987,37.129 55.78,42.705 55.78,46.737C49.724,46.548 45.229,46.454 42.295,46.454C37.33,46.454 31.914,46.548 26.047,46.737L25.459,67.081L25.401,74.654L25.401,77.141L13.238,77.028C12.295,77.028 7.882,77.066 0,77.141Z" style="fill:white;fill-rule:nonzero;"/><path d="M75.445,35.886C76.161,32.156 76.613,29.585 76.802,28.172C76.99,26.759 77.292,24.546 77.706,21.532C88.557,19.158 97.882,17.971 105.683,17.971C110.129,17.971 114.199,18.47 117.892,19.469C121.585,20.467 124.468,22.078 126.54,24.301C128.613,26.524 129.649,29.707 129.649,33.852C129.649,35.961 129.367,40.709 128.803,48.093C128.24,55.477 127.808,65.16 127.507,77.141C123.813,77.066 120.137,77.028 116.48,77.028C112.937,77.028 109.168,77.066 105.172,77.141C105.686,72.997 106.256,64.444 106.881,51.484C105.453,52.162 104.335,52.652 103.526,52.953C102.718,53.255 101.299,53.707 99.27,54.309C97.24,54.912 95.652,55.421 94.506,55.835C93.359,56.25 92.363,56.777 91.518,57.418C90.672,58.058 90.071,58.717 89.714,59.396C89.357,60.074 89.178,60.827 89.178,61.656C89.178,62.937 89.687,64.03 90.704,64.934C91.721,65.838 93.341,66.29 95.564,66.29C96.355,66.29 97.203,66.224 98.107,66.092C99.012,65.961 100.255,65.631 101.837,65.104C100.745,68.005 99.445,72.243 97.938,77.819C94.698,78.346 91.627,78.61 88.726,78.61C84.054,78.61 80.164,77.96 77.056,76.661C73.948,75.361 71.555,73.26 69.879,70.359C68.202,67.458 67.364,64.557 67.364,61.656C67.364,59.885 67.675,58.152 68.296,56.457C68.917,54.762 69.887,53.104 71.205,51.484C72.523,49.864 74.067,48.479 75.838,47.33C77.608,46.181 80.027,45.098 83.097,44.08C86.166,43.063 90.055,42.103 94.762,41.198C96.721,40.822 98.519,40.417 100.158,39.983C101.796,39.55 102.964,39.173 103.66,38.853C104.357,38.533 104.922,38.156 105.355,37.723C105.788,37.289 106.098,36.837 106.287,36.366C106.475,35.895 106.569,35.396 106.569,34.869C106.569,33.437 105.967,32.335 104.762,31.563C103.557,30.79 101.787,30.404 99.452,30.404C92.975,30.404 84.973,32.232 75.445,35.886Z" style="fill:white;fill-rule:nonzero;"/><path d="M140.097,77.141L141.107,64.982L143.294,22.735L143.912,0C149.155,0.075 153.097,0.113 155.737,0.113C159.17,0.113 162.961,0.075 167.11,0L165.82,17.35L163.744,60.074L163.296,77.141C159.26,77.103 155.62,77.084 152.375,77.084L140.097,77.141Z" style="fill:white;fill-rule:nonzero;"/><path d="M231.988,60.074C231.498,62.334 230.556,67.797 229.162,76.463C224.792,77.329 221.118,77.904 218.142,78.186C215.166,78.469 212.152,78.61 209.1,78.61C204.616,78.61 200.491,78.3 196.723,77.679C192.956,77.058 189.706,75.957 186.975,74.376C184.243,72.795 181.954,70.828 180.108,68.475C178.262,66.123 176.859,63.328 175.898,60.091C174.937,56.854 174.457,53.523 174.457,50.097C174.457,45.28 175.418,40.565 177.339,35.954C179.261,31.343 181.738,27.739 184.771,25.142C187.804,22.545 191.298,20.701 195.254,19.609C199.21,18.517 203.26,17.971 207.404,17.971C211.699,17.971 215.797,18.47 219.696,19.469C223.595,20.467 226.902,22.21 229.614,24.696C232.327,27.183 234.258,29.99 235.407,33.117C236.556,36.244 237.13,39.616 237.13,43.233C237.13,45.38 236.886,47.773 236.396,50.41L196.78,50.467C196.742,51.066 196.723,51.61 196.723,52.098C196.723,56.15 198.174,59.133 201.075,61.046C203.976,62.96 207.517,63.917 211.699,63.917C214.186,63.917 217.021,63.625 220.205,63.041C223.388,62.457 227.316,61.468 231.988,60.074ZM197.232,41.82L215.881,41.82C215.919,41.179 215.938,40.633 215.938,40.181C215.938,38.222 215.589,36.545 214.892,35.151C214.195,33.757 213.197,32.74 211.897,32.1C210.597,31.459 209.137,31.139 207.517,31.139C206.387,31.139 205.295,31.318 204.24,31.676C203.185,32.034 202.233,32.561 201.386,33.258C200.538,33.955 199.832,34.756 199.266,35.66C198.701,36.564 198.287,37.44 198.023,38.288C197.759,39.136 197.496,40.313 197.232,41.82Z" style="fill:white;fill-rule:nonzero;"/></svg>
